<svg id="Isolation_Mode" data-name="Isolation Mode" xmlns="http://www.w3.org/2000/svg" xmlns:xlink="http://www.w3.org/1999/xlink" viewBox="0 0 1450.73 396.99"><defs><style>.cls-1,.cls-2,.cls-3,.cls-4,.cls-5,.cls-6,.cls-7{fill-rule:evenodd;}.cls-1{fill:url(#GradientFill_1);}.cls-2{fill:none;}.cls-3{fill:url(#GradientFill_1-2);}.cls-4{fill:url(#GradientFill_1-3);}.cls-5{fill:url(#GradientFill_1-4);}.cls-6{fill:url(#GradientFill_2);}.cls-7{fill:url(#GradientFill_2-2);}</style><linearGradient id="GradientFill_1" x1="273.61" y1="72.62" x2="273.61" y2="302.95" gradientUnits="userSpaceOnUse"><stop offset="0" stop-color="#ffc40c"/><stop offset="0.9" stop-color="#f7ec00"/><stop offset="1" stop-color="#ffc40c"/></linearGradient><linearGradient id="GradientFill_1-2" x1="-265.61" y1="276.12" x2="-210.36" y2="276.12" xlink:href="#GradientFill_1"/><linearGradient id="GradientFill_1-3" x1="-265.04" y1="279.48" x2="-210.07" y2="279.48" xlink:href="#GradientFill_1"/><linearGradient id="GradientFill_1-4" x1="-286.82" y1="266.07" x2="-189.31" y2="266.07" xlink:href="#GradientFill_1"/><linearGradient id="GradientFill_2" x1="471.1" y1="359.61" x2="471.1" y2="173.49" gradientUnits="userSpaceOnUse"><stop offset="0" stop-color="#fff"/><stop offset="0.51" stop-color="#d1d3d4"/><stop offset="0.54" stop-color="#fff"/><stop offset="1" stop-color="#fff"/></linearGradient><linearGradient id="GradientFill_2-2" x1="-127.1" y1="358.33" x2="-127.1" y2="174.17" xlink:href="#GradientFill_2"/></defs><title>the-sign-store-logo</title><path class="cls-1" d="M338.39,65.91c276.22,0,519.33,35.63,660.59,89.59C864,117.06,759.86,92.8,446.47,92.8S-337.66,175-337.66,274.94s349,180.62,730.92,187.47q-27.19.46-54.87.49c-436.31,0-790.14-88.89-790.14-198.5S-97.92,65.91,338.39,65.91Z" transform="translate(451.75 -65.91)"/><path class="cls-2" d="M98.17,447.74Q45.67,441.2-6.58,432.18c-36.79-6.41-73.5-13.88-109.88-22.91a959.24,959.24,0,0,1-92.1-27.34c-23.95-8.58-48.18-18.58-70.77-31.26-24.06-13.51-63.33-39.56-63.33-75.73,0-27.39,29.06-47.66,47.21-58.49,16.52-9.85,34.23-17.83,51.77-24.84,21.92-8.75,44.31-16.15,66.75-22.82,26.11-7.74,52.46-14.49,78.89-20.6,29.24-6.76,58.62-12.74,88.08-18.13,63.63-11.66,127.73-20.69,191.86-27.64Q249.82,95.06,318,91c42.77-2.52,85.64-4,128.48-4,58.49,0,117,.78,175.5,3.26,32.37,1.37,64.74,3.27,97,6l-.32-.05c-60-8.31-120.35-14.16-180.71-18.11q-99.69-6.54-199.6-6.41C236,71.72,133.28,76.46,31.31,87.3-13.45,92.06-58.15,98-102.64,105.57c-39,6.63-78,14.48-116.61,24.17-32.29,8.11-64.55,17.53-96,29.23-24.45,9.09-49.23,19.77-72.11,33.36-21.75,12.91-59.38,39-59.38,72.07s37.63,59.16,59.38,72.08c22.88,13.59,47.66,24.27,72.11,33.36,31.47,11.7,63.73,21.12,96,29.23,38.59,9.69,77.56,17.54,116.61,24.17,44.49,7.55,89.19,13.51,134,18.27Q64.7,445.05,98.17,447.74Z" transform="translate(451.75 -65.91)"/><path class="cls-2" d="M98.17,447.74Q45.67,441.2-6.58,432.18c-36.79-6.41-73.5-13.88-109.88-22.91a959.24,959.24,0,0,1-92.1-27.34c-23.95-8.58-48.18-18.58-70.77-31.26-24.06-13.51-63.33-39.56-63.33-75.73,0-27.39,29.06-47.66,47.21-58.49,16.52-9.85,34.23-17.83,51.77-24.84,21.92-8.75,44.31-16.15,66.75-22.82,26.11-7.74,52.46-14.49,78.89-20.6,29.24-6.76,58.62-12.74,88.08-18.13,63.63-11.66,127.73-20.69,191.86-27.64Q249.82,95.06,318,91c42.77-2.52,85.64-4,128.48-4,58.49,0,117,.78,175.5,3.26,32.37,1.37,64.74,3.27,97,6l-.32-.05c-60-8.31-120.35-14.16-180.71-18.11q-99.69-6.54-199.6-6.41C236,71.72,133.28,76.46,31.31,87.3-13.45,92.06-58.15,98-102.64,105.57c-39,6.63-78,14.48-116.61,24.17-32.29,8.11-64.55,17.53-96,29.23-24.45,9.09-49.23,19.77-72.11,33.36-21.75,12.91-59.38,39-59.38,72.07s37.63,59.16,59.38,72.08c22.88,13.59,47.66,24.27,72.11,33.36,31.47,11.7,63.73,21.12,96,29.23,38.59,9.69,77.56,17.54,116.61,24.17,44.49,7.55,89.19,13.51,134,18.27Q64.7,445.05,98.17,447.74Z" transform="translate(451.75 -65.91)"/><path class="cls-3" d="M-265.61,290.26h.11l.35-.06Zm1.05-.19h0l.25-.06Zm0,8v0h.27v-.07l.27-.07Zm33.39-44a13.73,13.73,0,0,1,1.1,1.57A11,11,0,0,0-231.17,254.13Zm2.63,5.14c0,.16.09.33.13.5h0v0C-228.44,259.59-228.49,259.43-228.54,259.27Zm17.69,31.54.36,0h.13Z" transform="translate(451.75 -65.91)"/><path class="cls-4" d="M-210.49,299.2h0a2.94,2.94,0,0,0,.42,0A3,3,0,0,1-210.49,299.2Zm-17.92-39.43h0v0Zm17.54,39.42.38,0h-.38Zm-54-1,.29-.06h0Zm-.19-8,.48-.09h0Zm.48,7.94h.27v-.07Z" transform="translate(451.75 -65.91)"/><path class="cls-5" d="M-189.31,274.34q0-11.82-5.8-18.34c-3.85-4.42-9-6.61-15.38-6.61h0a19.6,19.6,0,0,0-15.36,6.74c-.2.23-.39.46-.57.7s-.36.45-.52.69-.35.48-.51.73c-.33.48-.63,1-.93,1.51v0h0c0-.17-.09-.34-.13-.5l-.15-.49c-.13-.38-.26-.75-.4-1.1a.67.67,0,0,1-.06-.12c-.13-.33-.28-.65-.43-.95,0,0,0,0,0,0l0,0q-.21-.44-.45-.84a13.73,13.73,0,0,0-1.1-1.57c-.19-.23-.4-.47-.61-.69s-.42-.44-.65-.64l0,0c-.23-.2-.46-.39-.71-.58l0,0a7.75,7.75,0,0,0-.66-.46l-.15-.1c-.19-.12-.38-.24-.58-.34a11,11,0,0,0-1.29-.62,6.62,6.62,0,0,0-.62-.24l-.1,0c-.28-.1-.57-.2-.87-.28h0c-.33-.09-.66-.18-1-.25l-.9-.17a7.53,7.53,0,0,0-.83-.11h-.06c-.22,0-.45-.06-.68-.07a5.66,5.66,0,0,0-.6,0c-.48,0-1-.05-1.47-.05q-6.54,0-12,5.44v-21.9h-9.47v57.14l.25-.05-.25.06-.48.09-.11,0-.35.06h-.11l-1,.12c-.77.06-1.48.08-2.15.08a2.93,2.93,0,0,1-2.44-1v.07q-.85-1.1-.86-5.38V258.72h7v-8.29h-7V239h-9.47v11.42h-5.32v8.29h5.32v25.09a43.3,43.3,0,0,0,.54,7.76,9,9,0,0,0,1.09,2.83,7.67,7.67,0,0,0,2,2.3,9.48,9.48,0,0,0,3.09,1.51,15.12,15.12,0,0,0,4.34.55c.3,0,.59,0,.89,0s.45,0,.68,0l.34,0c.28,0,.57,0,.86-.08l.39,0,.81-.11.81-.13.81-.16.29-.07.54-.12-.27.07v.07h9.2V264.67a20.44,20.44,0,0,1,5.47-5.08,10.46,10.46,0,0,1,5.36-1.57c2.57,0,4.4.73,5.53,2.18s1.67,3.94,1.67,7.39v30.53h9.54v-7.85c.08.14.18.27.28.41l.32.46c.39.53.8,1.05,1.24,1.54a20.45,20.45,0,0,0,4,3.33l.47.29c.21.13.42.25.64.36l.82.43.45.2.6.26.13.05q.47.19,1,.36c.26.1.53.18.81.26a3.64,3.64,0,0,0,.47.14c.22.07.45.13.68.18l.35.08c.24.06.49.11.74.15a1.33,1.33,0,0,0,.3.06l.85.14a2.4,2.4,0,0,0,.28,0c.23,0,.46.06.7.08a5.67,5.67,0,0,0,.58.05c.31,0,.62.05.94.06h.38a3,3,0,0,0,.42,0h.42a21.47,21.47,0,0,0,13.08-4q5.44-4.21,6.53-12.7h-9.89c0,2.94-1,5-2.94,6.35a9.71,9.71,0,0,1-3.21,1.55,13.44,13.44,0,0,1-3.57.46l-.71,0h-.13l-.36,0a10.61,10.61,0,0,1-1.15-.16h-.07a8.1,8.1,0,0,1-1-.24h0a9.27,9.27,0,0,1-1-.36,10.79,10.79,0,0,1-1.69-.87,4.38,4.38,0,0,1-.42-.28,12.49,12.49,0,0,1-1.6-1.34c-2.19-2.18-3.53-5.64-4-10.35h32.51Zm-32.22-5.44c.71-3.81,2-6.64,4-8.5a9.88,9.88,0,0,1,7-2.78h0a9.84,9.84,0,0,1,7.08,2.81c1.94,1.88,3.27,4.71,4,8.47Z" transform="translate(451.75 -65.91)"/><path class="cls-6" d="M192.88,364.51h37.87l-1.21-134.1,85.31,134.1h39.54V168.07H316.75l.78,134.27L232.65,168.07H192.88V364.51ZM433.46,254c-1.21-.62-2.4-1.32-3.59-2-12.9-7-31.46-19.51-31.46-38.36,0-8.56,2.38-16.2,7.94-22s13-8.12,20.55-8.12a26.93,26.93,0,0,1,16.26,5.16,40.87,40.87,0,0,1,10.66,12.09L469.77,191a39.81,39.81,0,0,0-15-19.38c-9-6.14-19.73-8.15-30.1-8.15-13.11,0-25.35,3.86-35,14.36-9.31,10.11-13.17,22.88-13.17,37.49,0,11.06,2.52,21.32,8.66,29.95h0c3.62,5.11,8.76,9.64,13.47,13.34A203,203,0,0,0,421.88,274c1.87.91,3.73,2.06,5.54,3.11,12.35,6.91,27.4,18.41,27.4,36.15,0,9.62-2.46,18.43-8.53,25.22S432.16,348,423.71,348s-17-2.14-24-8.08c-5.57-4.73-9.34-11.08-11.72-18.33l-15.72,8.62c2.73,11.45,7.84,21.33,16.31,28.58,9.86,8.39,21.9,11.19,34,11.19,14.59,0,28.49-4.1,39.2-15.95,10.46-11.59,14.32-26.73,14.32-43.16,0-11.27-2.4-21.84-8.69-30.67-7.9-10.95-22.9-20.17-33.91-26.21Zm160.38-66.3v-19.6H481.59v19.6h46V364.51H548.1V187.67Zm165.4,39.39a122.25,122.25,0,0,1,0,79.31,103.36,103.36,0,0,1-19.34,33.34A91.21,91.21,0,0,1,711,362.17,76.64,76.64,0,0,1,677.24,370a77.6,77.6,0,0,1-34.15-7.84,88.91,88.91,0,0,1-28.74-22.38v0a102.1,102.1,0,0,1-19.26-33.19,123.87,123.87,0,0,1,0-79.67,103.68,103.68,0,0,1,19.26-33.48,88.29,88.29,0,0,1,28.77-22.29,79.4,79.4,0,0,1,68,0,88.11,88.11,0,0,1,28.72,22.28,107.2,107.2,0,0,1,19.36,33.69Zm-20.18,70.6a95.05,95.05,0,0,0,5.06-31,96.19,96.19,0,0,0-5.06-31.15h0a83.28,83.28,0,0,0-14.52-26.31,65.47,65.47,0,0,0-21.49-17.61h0a57.19,57.19,0,0,0-51.6-.1,66.33,66.33,0,0,0-21.74,17.7,81.36,81.36,0,0,0-14.49,26.2h0a98.13,98.13,0,0,0-5,31.28,96.2,96.2,0,0,0,5,31.05h0a83.37,83.37,0,0,0,14.49,26.18,66,66,0,0,0,21.7,17.7,57,57,0,0,0,25.84,6.11,56.26,56.26,0,0,0,25.57-6.11,67.91,67.91,0,0,0,21.71-17.69,82.77,82.77,0,0,0,14.54-26.28ZM869,364.51h22.35l-59-92.38,6.42-.91c10.42-1.49,20.38-5.7,27.23-15.2,7.15-9.95,9.18-23.26,9.18-35.82a69,69,0,0,0-4.05-24.06,45.05,45.05,0,0,0-11.31-17.54,36,36,0,0,0-14.78-8c-8-2.24-17.67-2.56-25.89-2.56H783.76V364.51h18.75v-91.8h8.93L869,364.51Zm-64.72-109V188h8.88c9.52,0,23.59.89,31.45,7.85C852,202.3,854,213,854,223.12c0,9.46-1.89,19.47-8.89,25.38-7.63,6.43-22.81,7-31.9,7Zm104.06,109h89V343.38H928.86v-75h68.45V247.81H928.86V187.67h68.45v-19.6h-89V364.51Zm-963.46,0h40.05V168.07h-40V364.51ZM90,288.93h47.45l-.57,4.93c-1.45,12.66-6.59,23-15.46,30.75C112.08,332.8,100.88,336,89.23,336,74.8,336,62.28,330.44,53,317.56c-9.92-13.7-13.06-31.49-13.06-48.9S43.11,233.73,53,220.09h0c9.31-12.8,21.84-18.3,36.23-18.3a41,41,0,0,1,22.32,6.37h0a55.31,55.31,0,0,1,15.78,16l34.15-19.41c-7.7-12.4-17.27-22.69-29.1-29.9-13.38-8.16-28.1-11.41-43.16-11.41a83.34,83.34,0,0,0-34.94,7.39,84.44,84.44,0,0,0-28.55,21.74A101.3,101.3,0,0,0,6.85,225.77,131.2,131.2,0,0,0,7,307a103.21,103.21,0,0,0,18.32,33.38h0a78.77,78.77,0,0,0,27.9,21.87h0c11.4,5.25,23.75,7.19,36,7.19,24.07,0,46.83-7.11,63.57-27.83,17.35-21.52,22.55-50.75,22.55-79.26,0-2.42,0-4.87,0-7.29,0-.13,0-.27,0-.4H90Z" transform="translate(451.75 -65.91)"/><path class="cls-7" d="M-169.58,257.33c8.23,10.05,22.82,16.08,34.11,19.65,7.36,2.31,20,6.56,25.75,12.53,4.9,5.08,6.74,12.06,6.74,19.5,0,7.65-2.61,14.11-7.69,19.07-5.22,5.16-11.69,7.23-18.5,7.23-8.16,0-15.78-3-22.75-7.71a87.15,87.15,0,0,1-17.91-16.92l-16.53,32c7.36,7.79,15.63,14.49,24.86,19a71.25,71.25,0,0,0,31.39,6.84c16.92,0,33-4.78,45.47-18.39h0c12-13.05,16.8-29.8,16.8-48.6a74.33,74.33,0,0,0-3-21.66h0a47.23,47.23,0,0,0-8.45-16.3c-7.56-9.1-25.86-15.58-36.11-18.81h-.07l-2.12-.7c-6.12-1.93-14.91-5-19.78-9.85-4.26-4.17-6.26-9.77-6.26-16.17a21.24,21.24,0,0,1,7.07-16.36c4.8-4.29,10.64-5.89,16.64-5.89a42.91,42.91,0,0,1,18.51,4.49l0,0a61.69,61.69,0,0,1,13.09,8.75l11.12-30a78.43,78.43,0,0,0-20.21-10.81,78.62,78.62,0,0,0-26-4.31c-15.24,0-29.15,4.77-40.23,17.07h0c-10.84,12-15.36,27-15.36,44.19C-179,236.92-176.72,248.56-169.58,257.33Z" transform="translate(451.75 -65.91)"/></svg>